<svg height="182" viewBox="0 0 260 182" width="260" xmlns="http://www.w3.org/2000/svg"><path d="m555-2113.383s-30.628-73.832-8.587-90.272c14.732-10.99 30.348 13.235 48.986.42 16.593-11.409-6.541-40.15 21.146-47.669 29.1-7.9 52.942 56.1 77.36 47.249 29.63-10.738 59.1 11.06 33.633 90.413z" fill="#d4e8ff" transform="translate(-509.088 2265.669)"/><path d="m335.109-2287.1q-.218-.628-.432-1.26l-1.2.314q.2.6.411 1.2c.36 1.035.728 2.06 1.1 3.058l1.193-.343a129.86 129.86 0 0 1 -1.072-2.969zm214.547-3.013c-.116.935-.239 1.883-.368 2.831q-.105.788-.215 1.574l1.245.135q.11-.783.217-1.569c.129-.956.252-1.909.37-2.851zm-217.617-6.8-1.22.263c.4 1.438.827 2.891 1.268 4.316l1.212-.289c-.437-1.416-.861-2.86-1.259-4.291zm219.443-1.967-.877-.062q-.042.435-.081.874c-.111 1.173-.23 2.361-.356 3.544l1.25.1c.16-1.482.307-2.975.439-4.434zm-221.6-6.688-1.233.209c.318 1.445.663 2.913 1.025 4.365l1.227-.235a149.217 149.217 0 0 1 -1.022-4.341zm221.362-2.224a233.654 233.654 0 0 1 -.277 4.427l1.253.069c.107-1.482.2-2.978.279-4.445zm-223.02-6.513-1.243.153c.231 1.453.489 2.935.768 4.407l1.238-.182c-.28-1.463-.537-2.936-.766-4.38zm223.311-2.348a208.593 208.593 0 0 1 -.1 4.432l1.254.032c.05-1.491.084-2.988.1-4.453zm-224.418-6.453-1.251.088c.134 1.462.3 2.955.485 4.441l1.248-.123a126.224 126.224 0 0 1 -.485-4.408zm225.583-2.444-1.255.033c.048 1.454.08 2.945.095 4.43l1.256-.009c-.017-1.493-.05-2.991-.096-4.454zm-226.072-6.4-1.255.016c.026 1.465.08 2.965.163 4.459l1.255-.054a108.585 108.585 0 0 1 -.166-4.417zm225.553-2.5-1.252.082c.122 1.451.228 2.938.314 4.42l1.255-.056a200.414 200.414 0 0 0 -.32-4.443zm-226.6-6.4a99.711 99.711 0 0 0 -.2 4.46l1.256.022c.034-1.485.1-2.97.2-4.417zm225.589-2.464-1.247.139c.207 1.437.4 2.917.565 4.4l1.25-.11a146.486 146.486 0 0 0 -.567-4.43zm-224.57-6.421a90.997 90.997 0 0 0 -.619 4.434l1.25.109c.169-1.477.374-2.951.612-4.384zm223-2.389-1.234.2c.3 1.421.593 2.888.853 4.361l1.241-.17a123.846 123.846 0 0 0 -.86-4.394zm-149.914 3.034a12.133 12.133 0 0 1 -2.948-1.626l-.793.854a13.119 13.119 0 0 0 3.365 1.828 8 8 0 0 0 1.39.317l.134-1.1a6.561 6.561 0 0 1 -1.144-.272zm6.412-5.709-.648-.125c0 .016-.008.033-.013.048q-.168.675-.353 1.273c-.092.3-.188.588-.286.862a11.677 11.677 0 0 1 -.859 1.9l1.118.5q.25-.43.479-.932a17.509 17.509 0 0 0 .884-2.453c.087-.307.173-.628.256-.961zm-14.257-.334a90.723 90.723 0 0 1 -1.863-2.019l-.987.682q.521.582 1.011 1.112c.16.173.316.341.471.5.625.665 1.215 1.27 1.785 1.828l.934-.739c-.43-.419-.879-.875-1.348-1.364zm-63.3-3.373a81.138 81.138 0 0 0 -1.094 4.365l1.233.211a78.457 78.457 0 0 1 1.081-4.311zm218.832-2.323-1.214.282c.418 1.393.82 2.836 1.193 4.295l1.225-.242a99.98 99.98 0 0 0 -1.201-4.335zm-140.57-2.849a93.282 93.282 0 0 1 -.528 4.409l.207.024 1.038.118a101.45 101.45 0 0 0 .533-4.455zm-22.864-.592-1.016.648c.912 1.1 1.971 2.385 2.992 3.6l1.009-.656c-1.017-1.207-2.074-2.486-2.985-3.588zm95.916 2.613a4.517 4.517 0 0 1 -4.184-.156l-.67.933a5.849 5.849 0 0 0 2.852.763 6.594 6.594 0 0 0 2.542-.544zm-148.333-5.4a71.398 71.398 0 0 0 -1.626 4.239l1.2.322a75.288 75.288 0 0 1 1.6-4.178zm155.177-.656a40.321 40.321 0 0 1 -2.851 3.156c-.089.089-.179.176-.269.261l.924.75c.153-.147.31-.3.467-.458.85-.849 1.754-1.857 2.747-3.062zm-16.6-1.032-1.135.472a33.253 33.253 0 0 0 2.462 3.968l1.054-.6a31.965 31.965 0 0 1 -2.372-3.838zm74.243-.611-1.18.377a79.224 79.224 0 0 1 1.6 4.183l1.2-.327a75.506 75.506 0 0 0 -1.612-4.231zm-166.412-2.1-1 .666a283.76 283.76 0 0 1 3.013 3.565l1.014-.652a264.79 264.79 0 0 0 -3.018-3.574zm29.54-1.1c-.1 1.7-.2 3.149-.3 4.442l1.008.057.246.014.02-.283c.089-1.225.179-2.593.276-4.17zm-71.837-2.685q-1.171 1.976-2.2 4.036l1.149.445q1.017-2.023 2.169-3.972zm156.653.144c-.933 1.276-1.855 2.539-2.747 3.731l1.049.606c.9-1.2 1.819-2.462 2.755-3.741zm-25.961-1.85-1.181.374c.64 1.56 1.228 2.928 1.8 4.182l1.166-.409c-.556-1.24-1.139-2.6-1.775-4.144zm73.985-.623-1.119.5a64.976 64.976 0 0 1 2.123 3.99l1.153-.436a60.328 60.328 0 0 0 -2.147-4.051zm-168.786-.828-.94.732c1.043 1.034 2.1 2.14 3.242 3.382l.979-.692a94.848 94.848 0 0 0 -3.271-3.424zm36.476-3.053c-.089 1.5-.173 2.975-.259 4.45l1.254.056c.084-1.475.168-2.948.257-4.448zm89.928-1.072a125.65 125.65 0 0 0 -2.868 3.69l1.047.608a128.506 128.506 0 0 1 2.844-3.657zm-156.714-.252a34.538 34.538 0 0 0 -3.024 3.645l1.058.594a33.633 33.633 0 0 1 2.925-3.528zm121.839-2.578-1.163.341-.029.009a.01.01 0 0 1 0 .007c.264.7.555 1.463.861 2.26l.753 1.956.881-.264.307-.093a786.994 786.994 0 0 1 -1.612-4.217zm-98.9.737-.765.875a41.812 41.812 0 0 1 3.75 2.884l.876-.792a43.409 43.409 0 0 0 -3.858-2.968zm170.8-.583-1 .667a44.814 44.814 0 0 1 2.8 3.627l1.07-.577a46.69 46.69 0 0 0 -2.863-3.718zm-185.39-2.9a15.675 15.675 0 0 0 -4.638 2.156l.761.877a14.379 14.379 0 0 1 4.245-1.976zm154.844-1.358a45.487 45.487 0 0 0 -3.407 3.357l.975.694a44.849 44.849 0 0 1 3.325-3.274zm-95.8-.9a338.748 338.748 0 0 0 -.33 4.452l1.253.066c.109-1.6.216-3.053.329-4.439zm-53.782 1.893-.17 1.093a16.383 16.383 0 0 1 4.581 1.3l.559-.989a17.787 17.787 0 0 0 -4.967-1.402zm172.918-3.138-.738.892a28.828 28.828 0 0 1 3.72 2.856l.9-.771a30.037 30.037 0 0 0 -3.879-2.975zm-66.8.709c-.41-1.073-.775-2.017-1.12-2.907l-1.188.358c.445 1.141.919 2.373 1.482 3.852l.138.361 1.191-.349c-.173-.46-.34-.896-.499-1.313zm52.03-3.6a18.669 18.669 0 0 0 -4.636 2.091l.72.9a17.461 17.461 0 0 1 4.3-1.945zm5.223-.518-.117 1.1a17.645 17.645 0 0 1 4.68 1.06l.487-1.017a19.043 19.043 0 0 0 -5.051-1.143zm-108.68-4.244c-.179 1.4-.349 2.9-.506 4.445l1.251.1c.156-1.54.326-3.026.5-4.418zm48.619 1.214c-.405-.994-.8-1.932-1.18-2.835q-.286-.67-.567-1.319l-.681.228-.493.165c.479 1.1.96 2.24 1.462 3.46l.287.7 1.182-.373c.001-.003-.003-.012-.006-.021zm-47.142-10.059a90.007 90.007 0 0 0 -.829 4.416l1.243.158c.252-1.53.528-3 .821-4.371zm41.478-2.336-1.139.465a107.99 107.99 0 0 1 2.022 4.055l1.159-.423a105.85 105.85 0 0 0 -2.042-4.098zm-38.959-6.361c-.514 1.322-1 2.773-1.435 4.314l1.218.268c.429-1.511.9-2.933 1.405-4.225zm36.008 1.231a55.718 55.718 0 0 0 -1.865-2.77l-.428.238-.633.353a53.001 53.001 0 0 1 1.845 2.746q.33.524.66 1.069l1.11-.518q-.342-.57-.689-1.119zm-31.342-9.263a21.747 21.747 0 0 0 -2.717 3.859l1.126.488a20.58 20.58 0 0 1 2.579-3.664zm26.191 2.459c-.087-.095-.177-.188-.265-.281q-.946-.989-1.915-1.84-.5-.438-1-.835l-.842.82q.453.361.908.759.919.8 1.822 1.742c.112.115.222.233.333.353l.3.328.982-.687a9.23 9.23 0 0 0 -.324-.36zm-17.507-7.183a13.6 13.6 0 0 0 -4.871 1.617l.677.929a12.262 12.262 0 0 1 4.386-1.457zm5.217.051-.22 1.087a16.525 16.525 0 0 1 4.529 1.409l.6-.972a17.922 17.922 0 0 0 -4.9-1.524" fill="#dce6ff" transform="translate(-313.048 2429.554)"/><path d="m416.429-1597.181c-10.422-1.635-8.722 13.131-23.579 13.131-13.584 0-17.929-56.23-27.813-40.156-50.667 82.4-21.245-35.044-61.54-36.536-18.221-.676-30.362 19.878-34.839 56.267-6.49 32.9-21.541-25.092-37.03-19.7-9.844 3.427-8.717 40.124-22.3 40.124-14.857 0-13.156-14.766-23.579-13.131-11.222 1.759-14.574 27.895-14.574 27.895h259.825s-3.351-26.135-14.574-27.895" fill="#eef7ff" transform="translate(-171.176 1721.912)"/><path d="m527.037-1107.582c-9.588-.7-8.023 5.608-21.689 5.608-12.5 0-12.152-14.13-20.514-17.134-15.4-5.53-28.094 22.46-34.063 8.412-11.338-37.274-44.408-55.967-59.664 0-5.97 14.048-19.931-11.018-34.064-8.412-8.7 1.6-8.018 17.134-20.514 17.134-13.666 0-12.1-6.306-21.69-5.608-10.323.752-13.406 11.912-13.406 11.912h239.01s-3.084-11.16-13.406-11.912" fill="#dce6ff" transform="translate(-291.025 1248.252)"/><path d="m171.53-516.105s-1.757 5.73 5.729 7.306c19.465 4.1 48.993-1.273 28.509 12.147-10 6.548 46.562 10.615 111.763 10 73.6-.7 110.314-5.428 86.944-11.965s32.234-3.885 26.435-17.484h-259.38" fill="#e2f1ff" transform="translate(-171.337 668.595)"/><path d="m1087.867-1756.38h-127.4v-78.72h127.4v78.723" fill="#fcc" transform="translate(-897.545 1882.415)"/><path d="m1087.867-1585.3h-127.4v-93.466h127.4z" fill="#69b2f4" transform="translate(-897.545 1738.484)"/><path d="m1078.976-1560.266h-14.29v-14.29h14.29z" fill="#c0d8ff" transform="translate(-993.379 1642.711)"/><path d="m1280.147-1560.266h-14.29v-14.29h14.29z" fill="#c0d8ff" transform="translate(-1178.495 1642.711)"/><path d="m1481.313-1560.266h-14.29v-14.29h14.29z" fill="#c0d8ff" transform="translate(-1363.607 1642.711)"/><path d="m1682.486-1560.266h-14.286v-14.29h14.29v14.29" fill="#c0d8ff" transform="translate(-1548.724 1642.711)"/><path d="m1883.659-1560.266h-14.29v-14.29h14.29z" fill="#c0d8ff" transform="translate(-1733.842 1642.711)"/><path d="m2084.831-1560.266h-14.289v-14.29h14.289z" fill="#c0d8ff" transform="translate(-1918.96 1642.711)"/><path d="m2286-1560.266h-14.289v-14.29h14.289z" fill="#c0d8ff" transform="translate(-2104.078 1642.711)"/><path d="m1078.976-1360.974h-14.29v-14.289h14.29z" fill="#c0d8ff" transform="translate(-993.379 1459.304)"/><path d="m1280.147-1360.974h-14.29v-14.289h14.29z" fill="#c0ccff" transform="translate(-1178.495 1459.304)"/><path d="m1481.313-1360.974h-14.29v-14.289h14.29z" fill="#c0ccff" transform="translate(-1363.607 1459.304)"/><path d="m1682.486-1360.974h-14.286v-14.289h14.29v14.289" fill="#c0ccff" transform="translate(-1548.724 1459.304)"/><path d="m1883.659-1360.974h-14.29v-14.289h14.29z" fill="#c0ccff" transform="translate(-1733.842 1459.304)"/><path d="m2084.831-1360.974h-14.289v-14.289h14.289z" fill="#c0ccff" transform="translate(-1918.96 1459.304)"/><g fill="#c0d8ff"><path d="m2286-1360.974h-14.289v-14.289h14.289z" transform="translate(-2104.078 1459.304)"/><path d="m1078.976-1161.694h-14.29v-14.29h14.29z" transform="translate(-993.379 1275.91)"/><path d="m1280.147-1161.694h-14.29v-14.29h14.29z" transform="translate(-1178.495 1275.91)"/><path d="m1481.313-1161.694h-14.29v-14.29h14.29z" transform="translate(-1363.607 1275.91)"/><path d="m1682.486-1161.694h-14.286v-14.29h14.29v14.29" transform="translate(-1548.724 1275.91)"/><path d="m1883.659-1161.694h-14.29v-14.29h14.29z" transform="translate(-1733.842 1275.91)"/><path d="m2084.831-1161.694h-14.289v-14.29h14.289z" transform="translate(-1918.96 1275.91)"/><path d="m2286-1161.694h-14.289v-14.29h14.289z" transform="translate(-2104.078 1275.91)"/><path d="m1078.976-962.4h-14.29v-14.289h14.29z" transform="translate(-993.379 1092.503)"/><path d="m1280.147-962.4h-14.29v-14.289h14.29z" transform="translate(-1178.495 1092.503)"/><path d="m1481.313-962.4h-14.29v-14.289h14.29z" transform="translate(-1363.607 1092.503)"/><path d="m1682.486-962.4h-14.286v-14.289h14.29v14.289" transform="translate(-1548.724 1092.503)"/><path d="m1883.659-962.4h-14.29v-14.289h14.29z" transform="translate(-1733.842 1092.503)"/><path d="m2084.831-962.4h-14.289v-14.289h14.289z" transform="translate(-1918.96 1092.503)"/><path d="m2286-962.4h-14.289v-14.289h14.289z" transform="translate(-2104.078 1092.503)"/><path d="m1078.976-760.934h-14.29v-14.29h14.29z" transform="translate(-993.379 907.097)"/><path d="m1280.147-760.934h-14.29v-14.29h14.29z" transform="translate(-1178.495 907.097)"/><path d="m1481.313-760.934h-14.29v-14.29h14.29z" transform="translate(-1363.607 907.097)"/><path d="m1682.486-760.934h-14.286v-14.29h14.29v14.29" transform="translate(-1548.724 907.097)"/></g><path d="m1883.659-760.934h-14.29v-14.29h14.29z" fill="#c0ccff" transform="translate(-1733.842 907.097)"/><path d="m2084.831-760.934h-14.289v-14.29h14.289z" fill="#c0d8ff" transform="translate(-1918.96 907.097)"/><path d="m2286-760.934h-14.289v-14.29h14.289z" fill="#c0d8ff" transform="translate(-2104.078 907.097)"/><path d="m1119.219-1795.132a3.317 3.317 0 0 1 -3.317 3.317 3.317 3.317 0 0 1 -3.317-3.317 3.317 3.317 0 0 1 3.317-3.317 3.317 3.317 0 0 1 3.317 3.317" fill="#49a5f8" transform="translate(-1037.451 1848.762)"/><path d="m1721.137-1795.132a3.317 3.317 0 0 1 -3.318 3.317 3.317 3.317 0 0 1 -3.317-3.317 3.317 3.317 0 0 1 3.317-3.317 3.318 3.318 0 0 1 3.318 3.317" fill="#49a5f8" transform="translate(-1591.331 1848.762)"/><path d="m2022.1-1795.132a3.317 3.317 0 0 1 -3.318 3.317 3.317 3.317 0 0 1 -3.317-3.317 3.317 3.317 0 0 1 3.317-3.317 3.318 3.318 0 0 1 3.318 3.317" fill="#49a5f8" transform="translate(-1868.27 1848.762)"/><path d="m2323.055-1795.132a3.316 3.316 0 0 1 -3.317 3.317 3.317 3.317 0 0 1 -3.317-3.317 3.317 3.317 0 0 1 3.317-3.317 3.317 3.317 0 0 1 3.317 3.317" fill="#49a5f8" transform="translate(-2145.21 1848.762)"/><path d="m1420.178-1795.132a3.317 3.317 0 0 1 -3.318 3.317 3.317 3.317 0 0 1 -3.317-3.317 3.317 3.317 0 0 1 3.317-3.317 3.318 3.318 0 0 1 3.318 3.317" fill="#49a5f8" transform="translate(-1314.391 1848.762)"/><path d="m2104.358-1343.224a.625.625 0 0 1 -.464-.207l-3.736-4.131a.624.624 0 0 1 .045-.883.625.625 0 0 1 .883.044l3.173 3.507 5.178-8.547a.627.627 0 0 1 .86-.211.627.627 0 0 1 .211.86l-5.615 9.266a.627.627 0 0 1 -.475.3.574.574 0 0 1 -.06 0" fill="#eb5648" transform="translate(-1946.062 1439.504)"/><path d="m1907.117-1343.224a.623.623 0 0 1 -.463-.207l-3.737-4.131a.625.625 0 0 1 .044-.883.626.626 0 0 1 .884.044l3.173 3.507 5.178-8.547a.627.627 0 0 1 .86-.211.626.626 0 0 1 .21.86l-5.614 9.266a.627.627 0 0 1 -.475.3.578.578 0 0 1 -.06 0" fill="#eb5648" transform="translate(-1764.562 1439.504)"/><path d="m1702.465-1343.224a.627.627 0 0 1 -.465-.207l-3.736-4.131a.625.625 0 0 1 .044-.883.626.626 0 0 1 .884.044l3.172 3.507 5.179-8.547a.625.625 0 0 1 .859-.211.625.625 0 0 1 .211.86l-5.614 9.267a.629.629 0 0 1 -.475.3.592.592 0 0 1 -.06 0" fill="#eb5648" transform="translate(-1576.242 1439.504)"/><path d="m1494.465-1343.224a.627.627 0 0 1 -.465-.207l-3.736-4.131a.625.625 0 0 1 .044-.883.626.626 0 0 1 .884.044l3.172 3.507 5.179-8.547a.625.625 0 0 1 .859-.211.625.625 0 0 1 .211.86l-5.614 9.267a.628.628 0 0 1 -.475.3.587.587 0 0 1 -.06 0" fill="#eb5648" transform="translate(-1384.843 1439.504)"/><path d="m1293.292-1343.224a.627.627 0 0 1 -.465-.207l-3.736-4.131a.625.625 0 0 1 .044-.883.626.626 0 0 1 .884.044l3.172 3.507 5.179-8.547a.626.626 0 0 1 .859-.211.625.625 0 0 1 .211.86l-5.614 9.267a.627.627 0 0 1 -.475.3.576.576 0 0 1 -.06 0" fill="#eb5648" transform="translate(-1199.725 1439.504)"/><path d="m1134.549-1870.235a1.722 1.722 0 0 0 -1.721 1.722v7.289a1.722 1.722 0 0 0 1.721 1.722 1.722 1.722 0 0 0 1.721-1.722v-7.289a1.722 1.722 0 0 0 -1.721-1.722" fill="#69b2f4" transform="translate(-1056.078 1914.823)"/><path d="m1435.237-1870.235a1.722 1.722 0 0 0 -1.721 1.722v7.289a1.722 1.722 0 0 0 1.721 1.722 1.722 1.722 0 0 0 1.722-1.722v-7.289a1.722 1.722 0 0 0 -1.722-1.722" fill="#69b2f4" transform="translate(-1332.768 1914.823)"/><path d="m1736.2-1870.235a1.722 1.722 0 0 0 -1.721 1.722v7.289a1.722 1.722 0 0 0 1.721 1.722 1.722 1.722 0 0 0 1.722-1.722v-7.289a1.722 1.722 0 0 0 -1.722-1.722" fill="#69b2f4" transform="translate(-1609.708 1914.823)"/><path d="m2037.156-1870.235a1.722 1.722 0 0 0 -1.721 1.722v7.289a1.722 1.722 0 0 0 1.721 1.722 1.723 1.723 0 0 0 1.722-1.722v-7.289a1.723 1.723 0 0 0 -1.722-1.722" fill="#69b2f4" transform="translate(-1886.647 1914.823)"/><path d="m2338.115-1870.235a1.722 1.722 0 0 0 -1.721 1.722v7.289a1.722 1.722 0 0 0 1.721 1.722 1.723 1.723 0 0 0 1.722-1.722v-7.289a1.723 1.723 0 0 0 -1.722-1.722" fill="#69b2f4" transform="translate(-2163.587 1914.823)"/><path d="m315.5-1285.833-31.856-.051a6.648 6.648 0 0 1 -6.637-6.658l.1-60.27a6.647 6.647 0 0 1 6.659-6.637l31.856.051a6.647 6.647 0 0 1 6.637 6.658l-.1 60.27a6.647 6.647 0 0 1 -6.659 6.637" fill="#1196d8" transform="translate(-254.547 1454.636)"/><path d="m393.195-1267.977s-3.49-3.887-3.485-3.889l4.108-3.686a2.636 2.636 0 0 1 4.389 2.054 2.605 2.605 0 0 1 -.864 1.8s-4.146 3.723-4.148 3.718" fill="#eb5648" transform="translate(-358.247 1378.174)"/><path d="m327.593-1214.179a2.614 2.614 0 0 1 .214-3.675l4.145-3.716c.005 0 3.49 3.886 3.488 3.889-1.973 1.377-5.2 6.355-7.847 3.5" fill="#fff" transform="translate(-300.492 1327.871)"/><path d="m690.334-1267.977s-3.49-3.887-3.485-3.889l4.108-3.686a2.636 2.636 0 0 1 4.389 2.054 2.6 2.6 0 0 1 -.864 1.8s-4.146 3.723-4.148 3.718" fill="#eb5648" transform="translate(-631.694 1378.174)"/><path d="m624.732-1214.179a2.614 2.614 0 0 1 .214-3.675l4.145-3.716c.005 0 3.49 3.886 3.489 3.889-1.973 1.377-5.2 6.355-7.847 3.5" fill="#fff" transform="translate(-573.933 1327.871)"/><path d="m393.195-671.205s-3.49-3.887-3.485-3.889l4.108-3.686a2.636 2.636 0 0 1 4.389 2.054 2.6 2.6 0 0 1 -.864 1.8s-4.146 3.723-4.148 3.717" fill="#eb5648" transform="translate(-358.247 828.977)"/><path d="m327.593-617.407a2.612 2.612 0 0 1 .214-3.674l4.145-3.718c.005 0 3.49 3.886 3.488 3.889-1.973 1.377-5.2 6.355-7.847 3.5" fill="#fff" transform="translate(-300.492 778.674)"/><path d="m690.334-671.205s-3.49-3.887-3.485-3.889l4.108-3.686a2.636 2.636 0 0 1 4.389 2.054 2.6 2.6 0 0 1 -.864 1.8s-4.146 3.723-4.148 3.717" fill="#eb5648" transform="translate(-631.694 828.977)"/><path d="m624.732-617.407a2.612 2.612 0 0 1 .214-3.674l4.145-3.718c.005 0 3.49 3.886 3.489 3.889-1.973 1.377-5.2 6.355-7.847 3.5" fill="#fff" transform="translate(-573.933 778.674)"/><path d="m393.195-870.13s-3.49-3.888-3.485-3.89l4.108-3.684a2.636 2.636 0 0 1 4.389 2.054 2.605 2.605 0 0 1 -.864 1.8s-4.146 3.722-4.148 3.717" fill="#eb5648" transform="translate(-358.247 1012.044)"/><path d="m327.593-816.34a2.612 2.612 0 0 1 .214-3.674l4.145-3.717c.005 0 3.49 3.887 3.488 3.89-1.973 1.377-5.2 6.355-7.847 3.5" fill="#fff" transform="translate(-300.492 961.748)"/><path d="m690.334-870.13s-3.49-3.888-3.485-3.89l4.108-3.684a2.636 2.636 0 0 1 4.389 2.054 2.6 2.6 0 0 1 -.864 1.8s-4.146 3.722-4.148 3.717" fill="#eb5648" transform="translate(-631.694 1012.044)"/><path d="m624.732-816.34a2.613 2.613 0 0 1 .214-3.674l4.145-3.717c.005 0 3.49 3.887 3.489 3.89-1.973 1.377-5.2 6.355-7.847 3.5" fill="#fff" transform="translate(-573.933 961.748)"/><path d="m393.195-1069.051s-3.49-3.887-3.485-3.889l4.108-3.684a2.636 2.636 0 0 1 4.389 2.053 2.6 2.6 0 0 1 -.864 1.8s-4.146 3.723-4.148 3.717" fill="#eb5648" transform="translate(-358.247 1195.106)"/><path d="m327.593-1015.26a2.612 2.612 0 0 1 .214-3.674l4.145-3.717c.005 0 3.49 3.887 3.488 3.889-1.973 1.378-5.2 6.356-7.847 3.5" fill="#fff" transform="translate(-300.492 1144.809)"/><path d="m690.334-1069.051s-3.49-3.887-3.485-3.889l4.108-3.684a2.636 2.636 0 0 1 4.389 2.053 2.6 2.6 0 0 1 -.864 1.8s-4.146 3.723-4.148 3.717" fill="#eb5648" transform="translate(-631.694 1195.106)"/><path d="m624.732-1015.26a2.612 2.612 0 0 1 .214-3.674l4.145-3.717c.005 0 3.49 3.887 3.489 3.889-1.973 1.378-5.2 6.356-7.847 3.5" fill="#fff" transform="translate(-573.933 1144.809)"/><path d="m548.635-1245.383a1 1 0 0 1 -1-1v-63.917a1 1 0 0 1 1-1 1 1 0 0 1 1 1v63.925a1 1 0 0 1 -1 1" fill="#7689d6" transform="translate(-503.554 1410.344)"/><path d="m2334.661-979.051v48.274c0 2.424 8.83 4.389 19.721 4.389s19.72-1.965 19.72-4.389v-48.274z" fill="#1196d8" transform="translate(-2152.027 1094.545)"/><path d="m2374.1-1029.582c0 2.424-8.829 4.389-19.72 4.389s-19.721-1.965-19.721-4.389 8.83-4.389 19.721-4.389 19.72 1.965 19.72 4.389" fill="#045dad" transform="translate(-2152.027 1145.226)"/><path d="m2393.341-1138.557v10.893c0 1.848 6.729 3.345 15.032 3.345s15.032-1.5 15.032-3.345v-10.893z" fill="#1196d8" transform="translate(-2206.014 1241.467)"/><path d="m2423.4-1177.078c0 1.848-6.731 3.346-15.032 3.346s-15.032-1.5-15.032-3.346 6.729-3.346 15.032-3.346 15.032 1.5 15.032 3.346" fill="#045dad" transform="translate(-2206.014 1280.007)"/><path d="m2432.309-819.6a14.184 14.184 0 0 1 -14.184 14.184 14.184 14.184 0 0 1 -14.185-14.184 14.184 14.184 0 0 1 14.185-14.185 14.184 14.184 0 0 1 14.184 14.185" fill="#8abadd" transform="translate(-2215.766 960.96)"/><path d="m2477.236-662.474h-18.536a.588.588 0 0 1 -.588-.588.588.588 0 0 1 .588-.589h18.534a.588.588 0 0 1 .588.589.588.588 0 0 1 -.588.588" fill="#d4e8ff" transform="translate(-2265.607 804.443)"/><path d="m2477.236-719.341h-18.536a.588.588 0 0 1 -.588-.589.588.588 0 0 1 .588-.588h18.534a.588.588 0 0 1 .588.588.588.588 0 0 1 -.588.589" fill="#d4e8ff" transform="translate(-2265.607 856.776)"/><path d="m2477.236-605.608h-18.536a.588.588 0 0 1 -.588-.588.588.588 0 0 1 .588-.589h18.534a.588.588 0 0 1 .588.589.588.588 0 0 1 -.588.588" fill="#d4e8ff" transform="translate(-2265.607 752.11)"/><path d="m2632.131-382.386v4.2c0 3.39-5.854 6.139-13.076 6.139a22.3 22.3 0 0 1 -9.307-1.827c-2.33-1.109-3.768-2.632-3.768-4.312v-4.2h26.15" fill="#f39200" transform="translate(-2401.681 545.561)"/><path d="m2632.036-452.553c-.123 7.347-24.58 8.905-26.1.549a3.487 3.487 0 0 1 -.05-.891c.363-4.865 11.4-6.88 19.028-5.13 3.776.866 6.718 2.653 7.122 5.472" fill="#f9b233" transform="translate(-2401.586 615.728)"/><path d="m2703.18-453.341-11.471 11.483c-.3-.059-.523-.231-.809-.3l11.232-11.412c.3.06.762.162 1.047.231" fill="#f39200" transform="translate(-2479.808 611.059)"/><path d="m2303.1-421.707s1.069-9.2 1.078-9.2l9.721 1.134c4.03.335 5.664 5.863 2.422 8.246a4.617 4.617 0 0 1 -3.411.967s-9.814-1.14-9.81-1.149" fill="#eb5648" transform="translate(-2122.961 590.203)"/><path d="m2129.141-441.587a4.634 4.634 0 0 1 5.135-4.03l9.806 1.145c.011 0-1.068 9.2-1.074 9.2-4.146-1.006-14.555.546-13.867-6.318" fill="#fff" transform="translate(-1962.854 603.768)"/><path d="m1868.225-625.246c.557 8.422 1.6 16.823 2.755 25.183.267 1.98 2.628 2.358 2.848.2.2-2.147.135-4.161.307-6.318.393-6.293.951-12.6 1.649-18.861.479-5.437-7.749-5.666-7.56-.2" fill="#f99370" transform="translate(-1732.782 772.685)"/><path d="m1942.765-624.324 6.892 24.971a1.161 1.161 0 0 0 1.607.912c.743-.2 1.223-.248 1.158-.991l-2.209-26.2c-.622-5.4-8.691-3.989-7.448 1.308" fill="#f99370" transform="translate(-1801.258 772.517)"/><path d="m1851.6-264.173c-3.211.154-4.147 1.25-4.41 1.984v.012a.5.5 0 0 0 .47.659l6.988.022a1.77 1.77 0 0 0 .213-.667 4.343 4.343 0 0 0 -.36-2 3.919 3.919 0 0 1 -2.9-.01" fill="#1d3f70" transform="translate(-1713.402 436.794)"/><path d="m1847.193-239.346 7.667.026a1.774 1.774 0 0 1 -.213.667l-6.988-.022a.5.5 0 0 1 -.47-.658v-.012" fill="#395b96" transform="translate(-1713.402 413.952)"/><path d="m2022.182-263.391v.628h4.057v-.628a2.032 2.032 0 0 0 -2.028-2.035 2.032 2.032 0 0 0 -2.03 2.035" fill="#1d3f70" transform="translate(-1874.452 437.948)"/><path d="m2022.182-239.959v.628h4.057v-.628z" fill="#395b96" transform="translate(-1874.452 414.516)"/><path d="m1990.275-1044.157a2.635 2.635 0 0 1 -.7 3.64 2.635 2.635 0 0 1 -3.5-1.212 2.635 2.635 0 0 1 .7-3.64 2.635 2.635 0 0 1 3.5 1.213" fill="#662948" transform="translate(-1840.835 1155.985)"/><path d="m1975.9-1115.672s2.734-1.077 2.994-4.988c.273-4.1-3.744-4.93-5.363-3.763z" fill="#662948" transform="translate(-1829.683 1228.912)"/><path d="m1834.418-971.144s-6.773 1.457-9.356 10.821l6.544 1.49z" fill="#e9f4ff" transform="translate(-1693.068 1087.402)"/><path d="m1877.058-939.424a11.861 11.861 0 0 0 -2.29 2.964c-.421 1.157 1.145 1.227 1.145 1.227l1.144-4.192" fill="#d1e0f2" transform="translate(-1738.737 1058.224)"/><path d="m1921.857-1124.851c-3.957-1.115-6.589 4.637-4.69 7.633z" fill="#662948" transform="translate(-1777.239 1228.993)"/><path d="m1895.092-1025.449h-12.353a58.969 58.969 0 0 1 1.647-14.566c.685-2.768 1.078-4.982 3.717-6.462a18.115 18.115 0 0 1 .3-4.977 1.43 1.43 0 0 1 .92-1.056 1.532 1.532 0 0 1 2.031 1.766 17.355 17.355 0 0 0 -.2 4.382c5.363 1.711 2.629 7.8 3 11.89a45.9 45.9 0 0 0 .943 9.024" fill="#f99370" transform="translate(-1746.14 1162.335)"/><path d="m1952.517-1051.19a2.091 2.091 0 0 1 -.029.158 16.949 16.949 0 0 0 -.271 3.265 5.325 5.325 0 0 1 -3.036.279c.08-1.913-.147-4.79 1.275-5.309a1.528 1.528 0 0 1 2.06 1.608" fill="#e57d61" transform="translate(-1807.278 1162.658)"/><path d="m1918.5-1108.248a6.2 6.2 0 0 1 -1.757 3.8 3.409 3.409 0 0 1 -1.527.7c-3.181.89-6.913-2.81-4.427-5.5.9-.835 1.1-2.314 1.815-3.144a3.059 3.059 0 0 1 4.587-.2 5.091 5.091 0 0 1 1.311 4.345" fill="#f99370" transform="translate(-1771.209 1218.439)"/><path d="m1951.24-1061.424a.207.207 0 0 1 .368-.187.207.207 0 0 1 -.368.188" fill="#c16256" transform="translate(-1809.147 1170.778)"/><path d="m1929.52-1065.072a.207.207 0 0 1 .369-.188.207.207 0 0 1 -.369.188" fill="#c16256" transform="translate(-1789.16 1174.134)"/><path d="m1930.35-1058.4c-.377-.005-.965-.26-.487-.6.389-.211.677-1.02.679-1.027.4-.3-.17.954-.6 1.165-.306.188.33.369.594.276a.078.078 0 0 1 .1.051c.022.14-.182.12-.28.131" fill="#c16256" transform="translate(-1789.334 1169.255)"/><path d="m1840.729-754.271a22.738 22.738 0 0 0 19.672.043s-.069-1-.194-2.645c-.544-7.292-2.11-27.268-3.027-29.085a31.406 31.406 0 0 1 -4.322.785 47.275 47.275 0 0 1 -10 .011c-.4 2.1-1.965 21.7-2.116 29.748-.009.413-.012.795-.012 1.142" fill="#71d0ff" transform="translate(-1707.492 916.883)"/><path d="m1881.547-956.807a12.952 12.952 0 0 1 -14.192 1.257c.01-.015.525-12.416 5.976-15.594 0 0 .682 2.373 4.391 0 4.575 1.5 2.133 8.6 3.825 14.337" fill="#71d0ff" transform="translate(-1731.989 1087.394)"/><path d="m1864.68-790.474s7.3 2.962 14.193-1.257l.75 1.859s-5.627 4.8-15.175 1.6l.231-2.207" fill="#71b8ff" transform="translate(-1729.316 922.305)"/><path d="m1975.068-955.56v.034c.289 2.267.639 14.463.639 25.35 0 0 .4.047 1.031.072 1.7.072 5.116 0 7.073-1.5 0 0-1.157-21.075-1.5-22.924-.942-5.59-3.824-11.212-6.469-15.894l-.411-.722c-3.327 4.594-1.445 10.146-.364 15.584" fill="#e9f4ff" transform="translate(-1829.707 1087.344)"/><path d="m1954.375-1108.322a6.2 6.2 0 0 1 -1.757 3.8 7.571 7.571 0 0 0 .969-2.4l-.282-.737c-4.734-1.528-4.328-5.331-4.328-5.331a2.8 2.8 0 0 1 2.567-.517c2.223.575 3.113 2.976 2.833 5.181" fill="#e57d61" transform="translate(-1807.081 1218.513)"/><path d="m1955.266-1120.163a5.292 5.292 0 0 0 3.856 5.289l1.521-.84c1.483-2.909-1.2-7.182-5.376-4.449" fill="#662948" transform="translate(-1812.87 1225.357)"/><path d="m1833.622-935.2a3.223 3.223 0 0 0 1.527.542 7.388 7.388 0 0 0 .937.074c.788-5.411 2.248-29.218 3.305-34.579l.013-.062c.567-2.479 2.259-4.7 3.512-6.808l-.125.041c-5.26 1.742-6.211 10.38-7.123 21.632-.657 8.113-2.046 19.161-2.046 19.161" fill="#e9f4ff" transform="translate(-1700.945 1091.847)"/><path d="m1997.849-761.634s4.217.717 7.054-1.23c0 0-.113-.964-.3-1.736s-6.824 2.378-6.824 2.378l.067.587" fill="#d1e0f2" transform="translate(-1852.002 897.45)"/><path d="m1975.068-955.56v.034c.289 2.267.639 14.463.639 25.35 0 0 .4.047 1.031.072l-.8-24.8c-1.431-5.941-3-11.037-.1-15.522.123-.191.253-.381.394-.57a4.83 4.83 0 0 0 -.805-.152c-3.327 4.594-1.445 10.146-.364 15.584" fill="#d1e0f2" transform="translate(-1829.702 1087.344)"/><path d="m1852.729-934.663a7.387 7.387 0 0 0 .937.074c.788-5.411 2.248-29.218 3.305-34.579l.013-.062c.567-2.479 2.259-4.7 3.512-6.808l-.125.041a5.529 5.529 0 0 0 -.767.33 12.29 12.29 0 0 0 -.815 1 14.751 14.751 0 0 0 -2.857 6.785c-.553 4.453-2.648 28.675-3.2 33.221" fill="#d1e0f2" transform="translate(-1718.526 1091.847)"/><path d="m1986.249-888.838a11.272 11.272 0 0 0 1.672 3.345c1.271 1.786 3.336 5.451-1.187 5.541l.177 1.364 5.053-.6-1.023-6.97-4.691-2.674" fill="#d1e0f2" transform="translate(-1841.388 1011.66)"/><path d="m1945.715-962.681c3.363 2.487 6.563 7.116 6.895 11.225.347 7.8-6.907 8.417-12.436 5.414-1.166-.592-.2-2.384 1.054-2.052a10.225 10.225 0 0 0 2.453.463c7.972.223 3.175-6.2.084-9.088 0 0-.3-7.539 1.951-5.962" fill="#f99370" transform="translate(-1798.513 1079.803)"/><path d="m1990.431-951.532a8.556 8.556 0 0 1 -2.884 1s-.014-2.547-1.756-3.381a4.925 4.925 0 0 0 -.6-5.272c-1.3-1.574-2.785-2.755-3.045-4.927-.157-1.311 1.485-5.3 1.99-5.164a11.508 11.508 0 0 1 6.592 5.272c2.784 4.342 3.867 10.02-.293 12.47" fill="#e9f4ff" transform="translate(-1837.603 1085.673)"/><path d="m1803.015-899.009-8.939-.687-2.747-15.3 8.938.687z" fill="#1d3f70" transform="translate(-1662.029 1035.725)"/><path d="m1808.315-799.265c-.392.077-1.171-.358-.575-.709a.694.694 0 0 1 .622.061h-.019c.6-.028.506.618-.028.647" fill="#f99370" transform="translate(-1676.923 929.947)"/><path d="m1806.5-807.645a.839.839 0 0 1 -.693-.387c-.171-.411.679-.645.829-.281 0-.007-.011-.007.007 0a.279.279 0 0 0 .071.02s.012 0 0 0c.61.087.264.713-.212.647" fill="#f99370" transform="translate(-1675.32 937.737)"/><path d="m1804.973-814.339-.37-.137c-.532-.249.094-.767.467-.59l.37.137c.532.249-.094.767-.467.59" fill="#f99370" transform="translate(-1674.048 943.82)"/><path d="m1803.481-821.428-.371-.137c-.532-.248.094-.766.467-.59l.37.137c.533.249-.094.767-.466.59" fill="#f99370" transform="translate(-1672.674 950.343)"/><path d="m1904.452-794.163a2.332 2.332 0 0 0 -.478-.364 6.492 6.492 0 0 0 -2.612-1 5.5 5.5 0 0 0 -1.115-.044.3.3 0 0 0 0 .594 4.923 4.923 0 0 1 1.161.213 10.512 10.512 0 0 0 -1.443-.057.3.3 0 0 0 -.042.592 10.581 10.581 0 0 1 1.976.491 19 19 0 0 1 -1.876-.325.3.3 0 0 0 -.149.575 19.293 19.293 0 0 0 2.062.512c-.353-.02-.716-.06-1.066-.1a.3.3 0 0 0 -.112.584c.129.034.258.07.387.1a13.224 13.224 0 0 0 2.473.4c.11.005 1.027-1.967.835-2.173" fill="#f99370" transform="translate(-1761.716 925.852)"/><path d="m1980.885-1044.41a.068.068 0 0 1 -.068-.061.069.069 0 0 1 .06-.077l1.755-.2a.068.068 0 0 1 .076.061.068.068 0 0 1 -.061.076l-1.754.2h-.007" fill="#c16256" transform="translate(-1836.386 1155.158)"/><path d="m1988.637-1026.649a.068.068 0 0 1 -.058-.034.069.069 0 0 1 .023-.094l1.784-1.064a.069.069 0 0 1 .094.023.07.07 0 0 1 -.023.095l-1.783 1.063a.06.06 0 0 1 -.035.011" fill="#c16256" transform="translate(-1843.521 1139.605)"/><path d="m2005.109-1054.783c-.336 1.55-2.228 1.15-1.907-.4s2.228-1.15 1.907.4" fill="#f99370" transform="translate(-1856.952 1165.662)"/><path d="m2012.05-1049.428a.079.079 0 0 1 -.075-.1c.3-.824-.07-1.171-.625-.942a.078.078 0 0 1 -.057-.145c.651-.266 1.185.146.832 1.133a.077.077 0 0 1 -.075.055" fill="#c16256" transform="translate(-1864.385 1160.628)"/><path d="m2011.448-1045.51c-.243-.02.219-.768.812-.809a.079.079 0 0 1 .083.074.079.079 0 0 1 -.073.083c-.606.062-.679.632-.823.652" fill="#c16256" transform="translate(-1864.512 1156.601)"/><path d="m2012.76-1031.864a.176.176 0 0 1 -.352 0 .176.176 0 0 1 .352 0" fill="#f4d4be" transform="translate(-1865.456 1143.456)"/><path d="m1909.281-1052.917s1.3 1.115 5.457.721a3.823 3.823 0 0 0 .641 2.438 6.534 6.534 0 0 1 -4.508 1.264 3.717 3.717 0 0 1 -1.988-2.232 2.355 2.355 0 0 1 .4-2.191" fill="#e9f4ff" transform="translate(-1770.119 1162.668)"/><path d="m1951.564-1073.851a.068.068 0 0 1 -.059-.033 1.54 1.54 0 0 0 -1.088-.792.069.069 0 0 1 -.064-.072.069.069 0 0 1 .073-.064 1.637 1.637 0 0 1 1.2.857.069.069 0 0 1 -.023.095.069.069 0 0 1 -.035.01" fill="#c16256" transform="translate(-1808.355 1182.823)"/><path d="m1929.922-1075.363a.068.068 0 0 1 -.059-.033.068.068 0 0 1 .022-.094 1.5 1.5 0 0 1 1.025-.184.069.069 0 0 1 .051.082.068.068 0 0 1 -.082.052 1.387 1.387 0 0 0 -.922.166.065.065 0 0 1 -.036.011" fill="#c16256" transform="translate(-1789.49 1183.643)"/><path d="m1955.51-776.849a2.926 2.926 0 0 1 -.728 2.307s.08.25.528.241a4.048 4.048 0 0 0 .708-2.417.456.456 0 0 0 -.508-.131" fill="#1d3f70" transform="translate(-1812.43 908.643)"/><path d="m1840.729-419.4a22.738 22.738 0 0 0 19.672.043s-.069-1-.194-2.645a7.663 7.663 0 0 0 -3.367 1.655c-3.972 3.111-6.415.481-9 0-2.357-.438-3.139 1.673-7.1-.195-.009.413-.012.795-.012 1.142" fill="#71b8ff" transform="translate(-1707.492 582.009)"/><path d="m1664.177-950.721c.342.125-.261.948-.247 1.285a5.673 5.673 0 0 0 1.128-.64 21.254 21.254 0 0 0 1.495-1.839c.229-.319.613-.266.353.226a19.557 19.557 0 0 1 -1.225 1.969.031.031 0 0 1 .009.009 18.229 18.229 0 0 0 1.811-1.487.423.423 0 0 1 .3-.121c.74.019-1.573 2-1.76 2.179v.005a10.42 10.42 0 0 0 1.875-1.2.406.406 0 0 1 .3-.093c.751.1-1.751 1.9-2 2.018a.021.021 0 0 0 0 .009 10.294 10.294 0 0 0 1.6-.7.42.42 0 0 1 .318-.038c.654.192-1.64 1.4-1.882 1.49a10.931 10.931 0 0 1 -2.912.991c-.452.1-.743-1.224-.61-1.659a4.135 4.135 0 0 1 .368-.888c.123-.341.648-1.616 1.075-1.516" fill="#f99370" transform="translate(-1543.663 1069.901)"/><path d="m1362.637-1137.221a3.291 3.291 0 0 0 -3.7-1.2c-2.582.633-2.352 2.492-3.38 3.894a3.764 3.764 0 0 0 0 4.253c.628 1.132-1.186 1.465-.831 3.056.382 1.714 6.936 2.979 9.959 1.3s.582-4.556.717-6.087-2.767-5.22-2.767-5.22" fill="#c92828" transform="translate(-1260.229 1241.465)"/><path d="m1324.353-344.218h3.186a.688.688 0 0 0 .657-.883 6.659 6.659 0 0 1 -.688-2.429c.058-.956.436-5.512.512-6.548h-3.62c0 1.158-.023 5.348 0 6.42.339 1.036-1.728 3.167-.049 3.442" fill="#f99370" transform="translate(-1231.705 519.516)"/><path d="m1483.924-344.737a2.563 2.563 0 0 0 .029.519h8.02a.576.576 0 0 0 .476-.9 2.646 2.646 0 0 0 -1.494-.839c-1-.275-3.329-.2-3.6-1.735-.063-.879.657-5.422.73-6.384h-4.609c.214 2.7.96 6.683.448 9.342" fill="#f99370" transform="translate(-1378.744 519.516)"/><path d="m1461.8-980.584 3.665 10.519.555 1.59a8.865 8.865 0 0 0 2.711.684 11.16 11.16 0 0 0 4.476-.446 11.642 11.642 0 0 0 4.781-3.64c.206-.231.739-.767.508-.974a2.351 2.351 0 0 1 -.611-1.659c.037-.169-.215-.15-.376-.087-6.552 2.555-8.7-.04-11.1-2.681a11.277 11.277 0 0 0 -4.609-3.305" fill="#3a72aa" transform="translate(-1358.798 1096.089)"/><path d="m1489.095-266.4a2.345 2.345 0 0 0 .027.253h8.094a.54.54 0 0 0 .491-.77 2.037 2.037 0 0 0 -1.38-.917c-5.589.967-7.06-1.393-7.06-1.393.015.759-.184 1.9-.17 2.828" fill="#103663" transform="translate(-1383.913 441.444)"/><path d="m1507.663-920.675.555 1.59a8.871 8.871 0 0 0 2.712.684c-1.615-1.139-1.709-2.839-1.545-4.888a4.487 4.487 0 0 0 -1.341-3.614l-.38 6.229" fill="#23659b" transform="translate(-1400.997 1046.695)"/><path d="m1324.086-257.362h3.209c.992-.127.706-1.13.343-1.675a3.333 3.333 0 0 0 -3.93.01c-.374.6-.548 1.6.378 1.665" fill="#103663" transform="translate(-1231.447 432.66)"/><path d="m1448.383-1123.51c3.791-.874 5.052 5.122 2.682 7.632z" fill="#c92828" transform="translate(-1346.449 1227.708)"/><path d="m1368.983-1033.44h12.022a57.407 57.407 0 0 0 -1.6-14.176 17.319 17.319 0 0 0 -3-5.856l-.471-.288v-1.054c0 .054-.915-4.833-1.328-4.962-1.053-.366-2.05 3.074-1.726 4.261l-.06 1.722c-5.218 1.665-2.558 7.594-2.914 11.571a44.66 44.66 0 0 1 -.917 8.782" fill="#f99370" transform="translate(-1273.39 1168.969)"/><path d="m1414-1059.133c.007.052.017.1.029.155a12.738 12.738 0 0 1 .227 3.2 6.169 6.169 0 0 0 3.076.409c0-2.018.058-4.819-1.328-5.324a1.487 1.487 0 0 0 -2 1.564" fill="#e57d61" transform="translate(-1314.791 1169.925)"/><path d="m1397.417-1114.005a6.033 6.033 0 0 0 .975 3.958 3.323 3.323 0 0 0 1.329.954c2.875 1.439 7.126-1.4 5.25-4.438-.708-.964-.618-2.413-1.152-3.34a2.977 2.977 0 0 0 -4.345-1.042 4.959 4.959 0 0 0 -2.057 3.907" fill="#f99370" transform="translate(-1299.546 1222.957)"/><path d="m1457.492-1064.707a.2.2 0 0 0 -.317-.246.2.2 0 0 0 .317.246" fill="#c16256" transform="translate(-1354.495 1173.822)"/><path d="m1478.917-1064.167a.2.2 0 0 0 -.316-.247.2.2 0 0 0 .316.247" fill="#c16256" transform="translate(-1374.212 1173.326)"/><path d="m1468.195-1059.481c.361.066.97-.069.575-.478a2.254 2.254 0 0 1 -.458-1.107c-.329-.365-.014.943.362 1.224.257.237-.385.292-.619.155a.076.076 0 0 0 -.1.03c-.048.13.151.149.243.177" fill="#c16256" transform="translate(-1364.447 1170.231)"/><path d="m1322.969-759.106s2.607.966 4.42.176c1.1-5.89 4.3-17.776 5.385-29.254 0-.463 3.6 16.145 2.679 28.88 1.15.407 3.65 1.029 4.812.066.84-6 3.172-25.164-1-40.77a42.744 42.744 0 0 1 -13.341-1s-2.857 4.927-2.136 15.464c.6 10.229.151 20.408-.823 26.441" fill="#1d3f70" transform="translate(-1231.051 930.733)"/><path d="m1349.759-740.785 1.281 1.308-1.854 1.673-1.469-1.379 2.043-1.6" fill="#f99370" transform="translate(-1253.816 875.423)"/><path d="m1341.423-964.006a30.481 30.481 0 0 0 14.567.751 1.178 1.178 0 0 0 .943-1.079c.088-1.473-.814-2.264-1.434-4.554-.488-1.8 1.187-4.644.257-6.548a15.216 15.216 0 0 0 -4.714-5.491s-.721 2.279-4.33-.03c-3.352 2-5.289 16.952-5.289 16.952" fill="#3a72aa" transform="translate(-1248.031 1096.423)"/><path d="m1397.417-1113.987a6.034 6.034 0 0 0 .975 3.958 7.4 7.4 0 0 1 -.482-2.472l.407-.652c4.807-.583 5.123-4.291 5.123-4.291a2.729 2.729 0 0 0 -2.357-.97c-2.23.137-3.526 2.266-3.667 4.425" fill="#e57d61" transform="translate(-1299.545 1222.941)"/><path d="m1332.534-714.3c2.554-6.253.819-27.108 2.379-32.986a8.349 8.349 0 0 0 3.593-4 .215.215 0 0 0 -.4-.151c-.985 2.632-3.54 3.735-3.58 3.946-.042.142-1 3.546-.771 10.488.488 6.866-.823 17.717-1.218 22.7" fill="#163356" transform="translate(-1239.846 885.25)"/><path d="m1287.966-960.207c.15.1.3.2.437.28a.7.7 0 0 0 .746-.014 3.281 3.281 0 0 0 1.34-1.693.831.831 0 0 0 -.073-.674c-3.77-6.429.946-8.264 2.115-12.194a19.79 19.79 0 0 0 .74-6.455c-6.874.871-15.369 14.518-5.3 20.75" fill="#3a72aa" transform="translate(-1194.581 1096.418)"/><path d="m1397.383-1127.2a5.152 5.152 0 0 1 -4.665 4.339l-1.3-1.085c-.878-3.054 2.479-6.639 5.962-3.254" fill="#c92828" transform="translate(-1293.904 1232.292)"/><path d="m1322.969-293.518s2.607.966 4.42.176c0 0 .106-.517.289-1.435 0 0-1.628.85-4.471-.209a21.487 21.487 0 0 1 -.238 1.468" fill="#163356" transform="translate(-1231.044 465.145)"/><path d="m1449.265-612.721c-.018-8.89-.183-22.046-3.6-27.771a114.753 114.753 0 0 1 2.75 27.4q-.027.743-.071 1.479h.009a7.6 7.6 0 0 0 .414.136h.006c.068.02.144.043.226.065l.053.016.054.014c1.079.294 3.032.66 4.048-.172 0 0 .057-.435.161-1.168a6.713 6.713 0 0 1 -4.049-.007" fill="#163356" transform="translate(-1343.948 783.041)"/><path d="m1385.542-1070.26c.033 1.543 1.916 1.512 1.9-.031s-1.915-1.512-1.9.031" fill="#f99370" transform="translate(-1288.622 1179.71)"/><path d="m1389.692-1065.039a.077.077 0 0 0 .091-.083c-.129-.842.283-1.1.773-.783a.076.076 0 0 0 .081-.129c-.572-.374-1.158-.08-1 .928a.076.076 0 0 0 .061.067" fill="#c16256" transform="translate(-1292.361 1174.888)"/><path d="m1391.34-1062.046c.235.027-.067-.775-.626-.923a.078.078 0 0 0 -.093.054.076.076 0 0 0 .054.093c.568.173.532.73.665.776" fill="#c16256" transform="translate(-1293.293 1171.926)"/><path d="m1394.043-1047.773a.171.171 0 0 0 .336.065.171.171 0 0 0 -.336-.065" fill="#f4d4be" transform="translate(-1296.441 1158.065)"/><path d="m1489.055-240.068a2.563 2.563 0 0 0 .029.519h8.094a.54.54 0 0 0 .491-.77h-8.6a4.069 4.069 0 0 0 -.013.251" fill="#0f2e54" transform="translate(-1383.876 414.847)"/><path d="m1324.136-239.549h3.284a.646.646 0 0 0 .634-.77h-4.547a.642.642 0 0 0 .629.769" fill="#0f2e54" transform="translate(-1231.528 414.847)"/><path d="m1405.077-984.654a1.434 1.434 0 0 1 1.383.674 2.572 2.572 0 0 1 -1.6 1.58 1.736 1.736 0 0 0 -.718-.89 1.5 1.5 0 0 0 -.427.89s-2.313-.289-3.055-1.9a1.885 1.885 0 0 1 1.3-.388s1 1.218 2.071 1.081a1.1 1.1 0 0 0 1.043-1.048" fill="#1d3f70" transform="translate(-1302.538 1099.888)"/><path d="m1351.834-903.867a.132.132 0 0 1 -.12-.076 6.455 6.455 0 0 1 -.651-4.43 8.685 8.685 0 0 1 1.579-2.937c.208-.288.4-.559.582-.832a11.016 11.016 0 0 0 1.528-3.752.133.133 0 0 1 .152-.11.133.133 0 0 1 .11.152 11.1 11.1 0 0 1 -1.566 3.854c-.181.279-.38.553-.59.843-1.212 1.668-2.583 3.56-.9 7.1a.132.132 0 0 1 -.063.177.118.118 0 0 1 -.057.013" fill="#23659b" transform="translate(-1256.752 1036.66)"/><path d="m1453.436-1071.128a.064.064 0 0 1 -.056-.033.066.066 0 0 1 .022-.091 1.5 1.5 0 0 1 .891-.18.066.066 0 0 1 .057.075.068.068 0 0 1 -.075.057 1.387 1.387 0 0 0 -.8.162.066.066 0 0 1 -.034.01" fill="#c16256" transform="translate(-1351.036 1179.723)"/><path d="m1476.958-1070.565a.065.065 0 0 1 -.047-.018.88.88 0 0 0 -.607-.161.065.065 0 0 1 -.072-.058.067.067 0 0 1 .059-.073.993.993 0 0 1 .714.2.066.066 0 0 1 0 .094.063.063 0 0 1 -.047.02" fill="#c16256" transform="translate(-1372.072 1179.206)"/><path d="m1456.152-1038.941a.214.214 0 0 0 -.179.075.222.222 0 0 0 -.013.213.573.573 0 0 0 .2.256.57.57 0 0 0 .3.118.222.222 0 0 0 .2-.075.221.221 0 0 0 .013-.212.572.572 0 0 0 -.2-.256.578.578 0 0 0 -.3-.119zm.335.795h-.027a.705.705 0 0 1 -.377-.145.712.712 0 0 1 -.248-.318.352.352 0 0 1 .031-.337.35.35 0 0 1 .313-.128.71.71 0 0 1 .376.144.711.711 0 0 1 .248.318.35.35 0 0 1 -.031.337.341.341 0 0 1 -.286.128" fill="#c16256" transform="translate(-1353.278 1149.934)"/><path d="m1444.825-951.185a.3.3 0 0 1 .4.149.3.3 0 0 1 -.15.394.3.3 0 0 1 -.394-.149.3.3 0 0 1 .149-.394" fill="#1d3f70" transform="translate(-1343.011 1069.077)"/><path d="m1448.567-936.932a.3.3 0 0 1 .394.149.3.3 0 0 1 -.149.4.3.3 0 0 1 -.4-.15.3.3 0 0 1 .15-.394" fill="#1d3f70" transform="translate(-1346.454 1055.96)"/></svg>